<?xml version="1.0" encoding="UTF-8" standalone="no"?>
<!DOCTYPE svg PUBLIC "-//W3C//DTD SVG 1.1//EN"
 "http://www.w3.org/Graphics/SVG/1.1/DTD/svg11.dtd">
<!-- Generated by graphviz version 2.43.0 (0)
 -->
<!-- Title: G Pages: 1 -->
<svg width="633pt" height="66pt"
 viewBox="0.00 0.00 633.20 66.20" xmlns="http://www.w3.org/2000/svg" xmlns:xlink="http://www.w3.org/1999/xlink">
<g id="graph0" class="graph" transform="scale(1 1) rotate(0) translate(21.6 44.6)">
<title>G</title>
<polygon fill="#111111" stroke="transparent" points="-21.6,21.6 -21.6,-44.6 611.6,-44.6 611.6,21.6 -21.6,21.6"/>
<!-- modules/musics/repositories/Repository.ts -->
<g id="node1" class="node">
<title>modules/musics/repositories/Repository.ts</title>
<path fill="none" stroke="#ff6c60" d="M262.33,-23C262.33,-23 7.67,-23 7.67,-23 3.83,-23 0,-19.17 0,-15.33 0,-15.33 0,-7.67 0,-7.67 0,-3.83 3.83,0 7.67,0 7.67,0 262.33,0 262.33,0 266.17,0 270,-3.83 270,-7.67 270,-7.67 270,-15.33 270,-15.33 270,-19.17 266.17,-23 262.33,-23"/>
<text text-anchor="middle" x="135" y="-7.8" font-family="Arial" font-size="14.00" fill="#ff6c60">modules/musics/repositories/Repository.ts</text>
</g>
<!-- modules/musics/repositories/UrlGenerator.ts -->
<g id="node2" class="node">
<title>modules/musics/repositories/UrlGenerator.ts</title>
<path fill="none" stroke="#ff6c60" d="M582.33,-23C582.33,-23 313.67,-23 313.67,-23 309.83,-23 306,-19.17 306,-15.33 306,-15.33 306,-7.67 306,-7.67 306,-3.83 309.83,0 313.67,0 313.67,0 582.33,0 582.33,0 586.17,0 590,-3.83 590,-7.67 590,-7.67 590,-15.33 590,-15.33 590,-19.17 586.17,-23 582.33,-23"/>
<text text-anchor="middle" x="448" y="-7.8" font-family="Arial" font-size="14.00" fill="#ff6c60">modules/musics/repositories/UrlGenerator.ts</text>
</g>
<!-- modules/musics/repositories/Repository.ts&#45;&gt;modules/musics/repositories/UrlGenerator.ts -->
<g id="edge1" class="edge">
<title>modules/musics/repositories/Repository.ts&#45;&gt;modules/musics/repositories/UrlGenerator.ts</title>
<path fill="none" stroke="#757575" d="M270.15,-4.81C278.66,-4.76 287.25,-4.74 295.83,-4.75"/>
<polygon fill="#757575" stroke="#757575" points="295.87,-8.25 305.88,-4.78 295.89,-1.25 295.87,-8.25"/>
</g>
<!-- modules/musics/repositories/UrlGenerator.ts&#45;&gt;modules/musics/repositories/Repository.ts -->
<g id="edge2" class="edge">
<title>modules/musics/repositories/UrlGenerator.ts&#45;&gt;modules/musics/repositories/Repository.ts</title>
<path fill="none" stroke="#757575" d="M305.88,-18.22C297.33,-18.25 288.73,-18.26 280.17,-18.23"/>
<polygon fill="#757575" stroke="#757575" points="280.16,-14.73 270.15,-18.19 280.13,-21.73 280.16,-14.73"/>
</g>
</g>
</svg>
